# xmcd
#
# Track frame offsets: 
#        150
#        12890
#        24537
#        31030
#        44990
#        57762
#        69495
#        77847
#        89272
#        106940
#        118747
#        135562
#        145525
#
# Disc length: 2082 seconds
#
# Revision: 0
# Processed by: cddbd v1.5.2PL0 Copyright (c) Steve Scherf et al.
# Submitted via: ExactAudioCopy v0.99pb4
#
DISCID=a608200d
DTITLE=Thacker, Ernie and Junior Blankenship Band - Tennessee Blues
DYEAR=1995
DGENRE=Bluegrass
TTITLE0=Train Keeps Riding
TTITLE1=Home Again
TTITLE2=Kentucky Banjo
TTITLE3=Sing Me Back Home
TTITLE4=Blue Ridge Cabin Home
TTITLE5=Leaving You Today
TTITLE6=Used To Be
TTITLE7=I'm Lonesome Without You
TTITLE8=Tennessee Blues
TTITLE9=No Mother Or Dad
TTITLE10=Gremis
TTITLE11=Without You
TTITLE12=I'm Ready To Go
EXTD=
EXTT0=
EXTT1=
EXTT2=
EXTT3=
EXTT4=
EXTT5=
EXTT6=
EXTT7=
EXTT8=
EXTT9=
EXTT10=
EXTT11=
EXTT12=
PLAYORDER=
